<?xml version="1.0" standalone="no"?>
<!DOCTYPE svg PUBLIC "-//W3C//DTD SVG 20010904//EN"
 "http://www.w3.org/TR/2001/REC-SVG-20010904/DTD/svg10.dtd">
<svg version="1.0" xmlns="http://www.w3.org/2000/svg"
 width="200.000000pt" height="200.000000pt" viewBox="0 0 200.000000 200.000000"
 preserveAspectRatio="xMidYMid meet">
<metadata>
Created by potrace 1.11, written by Peter Selinger 2001-2013
</metadata>
<g transform="translate(0.000000,200.000000) scale(0.100000,-0.100000)"
fill="#000000" stroke="none">
<path d="M350 1893 c-101 -53 -137 -174 -83 -279 48 -94 178 -132 273 -82 25
14 59 44 75 67 27 38 30 51 30 116 0 65 -3 78 -30 116 -36 51 -91 81 -159 87
-42 3 -61 -1 -106 -25z"/>
<path d="M1155 1837 c-3 -7 -4 -138 -3 -292 l3 -280 163 -3 162 -2 0 -30 c0
-27 -3 -29 -42 -32 -42 -3 -43 -4 -43 -38 l0 -35 155 0 155 0 3 38 3 37 -40 0
c-39 0 -41 2 -41 30 l0 29 158 3 157 3 0 290 0 290 -393 3 c-311 2 -394 0
-397 -11z m725 -252 l0 -195 -330 0 -330 0 0 195 0 195 330 0 330 0 0 -195z
m-310 -260 c0 -8 -6 -15 -14 -15 -17 0 -28 14 -19 24 12 12 33 6 33 -9z"/>
<path d="M1340 1675 l0 -65 100 0 100 0 0 65 0 65 -100 0 -100 0 0 -65z"/>
<path d="M1560 1715 l0 -25 105 0 105 0 0 25 0 25 -105 0 -105 0 0 -25z"/>
<path d="M1560 1630 c0 -19 7 -20 105 -20 98 0 105 1 105 20 0 19 -7 20 -105
20 -98 0 -105 -1 -105 -20z"/>
<path d="M1340 1545 l0 -25 100 0 100 0 0 25 0 25 -100 0 -100 0 0 -25z"/>
<path d="M1560 1500 l0 -70 105 0 105 0 0 70 0 70 -105 0 -105 0 0 -70z"/>
<path d="M1340 1455 l0 -25 100 0 100 0 0 25 0 25 -100 0 -100 0 0 -25z"/>
<path d="M355 1447 c-43 -20 -92 -80 -105 -127 -9 -35 -5 -82 30 -303 22 -144
43 -270 46 -279 3 -10 17 -27 31 -38 24 -19 40 -20 243 -20 l217 0 27 -257
c15 -141 31 -266 36 -278 12 -31 35 -46 78 -52 31 -4 44 0 70 22 28 24 32 33
32 79 0 57 -57 589 -66 618 -3 10 -17 27 -31 38 -23 18 -40 20 -158 20 l-132
0 -7 93 c-3 50 -9 120 -12 154 l-6 62 63 -27 c59 -24 76 -26 207 -27 139 0
144 1 163 24 24 30 25 85 0 110 -15 15 -40 19 -147 23 -71 4 -142 11 -159 18
-16 6 -79 44 -140 83 -107 70 -112 72 -180 74 -44 2 -81 -2 -100 -10z"/>
<path d="M69 1281 c-30 -24 -30 -30 20 -350 46 -290 60 -334 128 -390 64 -53
105 -61 317 -61 105 0 196 4 202 8 37 24 39 93 4 112 -10 6 -99 10 -197 10
-198 0 -231 8 -265 67 -12 19 -33 129 -61 308 -39 250 -46 280 -66 296 -29 24
-53 24 -82 0z"/>
<path d="M806 1038 c-22 -31 -20 -64 4 -88 19 -19 33 -20 300 -20 l280 0 0
-360 0 -360 -75 0 c-85 0 -115 -18 -115 -68 0 -62 2 -62 376 -62 278 0 344 3
360 14 18 14 19 32 22 453 1 241 0 448 -3 460 -13 55 10 53 -585 53 l-549 0
-15 -22z"/>
</g>
</svg>
